<mxfile host="app.diagrams.net" agent="Mozilla/5.0 (Windows NT 10.0; Win64; x64) AppleWebKit/537.36 (KHTML, like Gecko) Chrome/128.0.0.0 Safari/537.36 Edg/128.0.0.0" version="24.7.13">
  <diagram name="Page-1" id="2cfFHOulRr0jmVhnRome">
    <mxGraphModel dx="1386" dy="749" grid="1" gridSize="10" guides="1" tooltips="1" connect="1" arrows="1" fold="1" page="1" pageScale="1" pageWidth="1169" pageHeight="827" math="0" shadow="0">
      <root>
        <mxCell id="0" />
        <mxCell id="1" parent="0" />
        <mxCell id="JS8GYsMPz_EXCHOyPgL2-1" value="&lt;font style=&quot;font-size: 14px;&quot;&gt;Input&lt;/font&gt;" style="text;html=1;align=center;verticalAlign=middle;whiteSpace=wrap;rounded=0;" parent="1" vertex="1">
          <mxGeometry x="30" y="135" width="60" height="30" as="geometry" />
        </mxCell>
        <mxCell id="JS8GYsMPz_EXCHOyPgL2-2" value="" style="rounded=0;whiteSpace=wrap;html=1;" parent="1" vertex="1">
          <mxGeometry x="160" y="120" width="120" height="60" as="geometry" />
        </mxCell>
        <mxCell id="JS8GYsMPz_EXCHOyPgL2-3" value="" style="endArrow=classic;html=1;rounded=0;exitX=1;exitY=0.5;exitDx=0;exitDy=0;entryX=0;entryY=0.5;entryDx=0;entryDy=0;" parent="1" source="JS8GYsMPz_EXCHOyPgL2-1" target="JS8GYsMPz_EXCHOyPgL2-2" edge="1">
          <mxGeometry width="50" height="50" relative="1" as="geometry">
            <mxPoint x="560" y="410" as="sourcePoint" />
            <mxPoint x="610" y="360" as="targetPoint" />
          </mxGeometry>
        </mxCell>
        <mxCell id="JS8GYsMPz_EXCHOyPgL2-4" value="Food" style="text;html=1;align=center;verticalAlign=middle;whiteSpace=wrap;rounded=0;" parent="1" vertex="1">
          <mxGeometry x="190" y="140" width="60" height="30" as="geometry" />
        </mxCell>
        <mxCell id="JS8GYsMPz_EXCHOyPgL2-5" value="" style="endArrow=classic;html=1;rounded=0;exitX=1;exitY=0.5;exitDx=0;exitDy=0;entryX=0;entryY=0.5;entryDx=0;entryDy=0;" parent="1" source="JS8GYsMPz_EXCHOyPgL2-2" target="JS8GYsMPz_EXCHOyPgL2-7" edge="1">
          <mxGeometry width="50" height="50" relative="1" as="geometry">
            <mxPoint x="560" y="410" as="sourcePoint" />
            <mxPoint x="300" y="155" as="targetPoint" />
          </mxGeometry>
        </mxCell>
        <mxCell id="JS8GYsMPz_EXCHOyPgL2-6" value="Chemical Energy" style="text;html=1;align=center;verticalAlign=middle;whiteSpace=wrap;rounded=0;" parent="1" vertex="1">
          <mxGeometry x="290" y="120" width="60" height="30" as="geometry" />
        </mxCell>
        <mxCell id="JS8GYsMPz_EXCHOyPgL2-7" value="" style="rounded=0;whiteSpace=wrap;html=1;" parent="1" vertex="1">
          <mxGeometry x="360" y="120" width="120" height="60" as="geometry" />
        </mxCell>
        <mxCell id="JS8GYsMPz_EXCHOyPgL2-8" value="Cyclist" style="text;html=1;align=center;verticalAlign=middle;whiteSpace=wrap;rounded=0;" parent="1" vertex="1">
          <mxGeometry x="390" y="135" width="60" height="30" as="geometry" />
        </mxCell>
        <mxCell id="JS8GYsMPz_EXCHOyPgL2-9" value="" style="rounded=0;whiteSpace=wrap;html=1;" parent="1" vertex="1">
          <mxGeometry x="560" y="120" width="120" height="60" as="geometry" />
        </mxCell>
        <mxCell id="JS8GYsMPz_EXCHOyPgL2-10" value="" style="endArrow=classic;html=1;rounded=0;exitX=1;exitY=0.5;exitDx=0;exitDy=0;entryX=0;entryY=0.5;entryDx=0;entryDy=0;" parent="1" source="JS8GYsMPz_EXCHOyPgL2-7" target="JS8GYsMPz_EXCHOyPgL2-9" edge="1">
          <mxGeometry width="50" height="50" relative="1" as="geometry">
            <mxPoint x="560" y="410" as="sourcePoint" />
            <mxPoint x="610" y="360" as="targetPoint" />
          </mxGeometry>
        </mxCell>
        <mxCell id="JS8GYsMPz_EXCHOyPgL2-11" value="Kinetic Energy" style="text;html=1;align=center;verticalAlign=middle;whiteSpace=wrap;rounded=0;" parent="1" vertex="1">
          <mxGeometry x="490" y="120" width="60" height="30" as="geometry" />
        </mxCell>
        <mxCell id="JS8GYsMPz_EXCHOyPgL2-12" value="Seat" style="text;html=1;align=center;verticalAlign=middle;whiteSpace=wrap;rounded=0;" parent="1" vertex="1">
          <mxGeometry x="590" y="135" width="60" height="30" as="geometry" />
        </mxCell>
        <mxCell id="JS8GYsMPz_EXCHOyPgL2-13" value="" style="endArrow=classic;html=1;rounded=0;entryX=0;entryY=0.5;entryDx=0;entryDy=0;exitX=1;exitY=0.5;exitDx=0;exitDy=0;" parent="1" source="JS8GYsMPz_EXCHOyPgL2-9" target="JS8GYsMPz_EXCHOyPgL2-14" edge="1">
          <mxGeometry width="50" height="50" relative="1" as="geometry">
            <mxPoint x="560" y="410" as="sourcePoint" />
            <mxPoint x="610" y="360" as="targetPoint" />
          </mxGeometry>
        </mxCell>
        <mxCell id="JS8GYsMPz_EXCHOyPgL2-14" value="" style="rounded=0;whiteSpace=wrap;html=1;" parent="1" vertex="1">
          <mxGeometry x="760" y="120" width="120" height="60" as="geometry" />
        </mxCell>
        <mxCell id="JS8GYsMPz_EXCHOyPgL2-15" value="Kinetic Energy" style="text;html=1;align=center;verticalAlign=middle;whiteSpace=wrap;rounded=0;" parent="1" vertex="1">
          <mxGeometry x="690" y="120" width="60" height="30" as="geometry" />
        </mxCell>
        <mxCell id="JS8GYsMPz_EXCHOyPgL2-16" value="Pedal" style="text;html=1;align=center;verticalAlign=middle;whiteSpace=wrap;rounded=0;" parent="1" vertex="1">
          <mxGeometry x="790" y="135" width="60" height="30" as="geometry" />
        </mxCell>
        <mxCell id="JS8GYsMPz_EXCHOyPgL2-17" value="" style="rounded=0;whiteSpace=wrap;html=1;" parent="1" vertex="1">
          <mxGeometry x="960" y="120" width="120" height="60" as="geometry" />
        </mxCell>
        <mxCell id="JS8GYsMPz_EXCHOyPgL2-18" value="" style="endArrow=classic;html=1;rounded=0;exitX=1;exitY=0.5;exitDx=0;exitDy=0;entryX=0;entryY=0.5;entryDx=0;entryDy=0;" parent="1" source="JS8GYsMPz_EXCHOyPgL2-14" target="JS8GYsMPz_EXCHOyPgL2-17" edge="1">
          <mxGeometry width="50" height="50" relative="1" as="geometry">
            <mxPoint x="630" y="310" as="sourcePoint" />
            <mxPoint x="680" y="260" as="targetPoint" />
          </mxGeometry>
        </mxCell>
        <mxCell id="JS8GYsMPz_EXCHOyPgL2-19" value="Kinetic Energy" style="text;html=1;align=center;verticalAlign=middle;whiteSpace=wrap;rounded=0;" parent="1" vertex="1">
          <mxGeometry x="890" y="120" width="60" height="30" as="geometry" />
        </mxCell>
        <mxCell id="JS8GYsMPz_EXCHOyPgL2-20" value="Crank" style="text;html=1;align=center;verticalAlign=middle;whiteSpace=wrap;rounded=0;" parent="1" vertex="1">
          <mxGeometry x="990" y="135" width="60" height="30" as="geometry" />
        </mxCell>
        <mxCell id="JS8GYsMPz_EXCHOyPgL2-21" value="" style="rounded=0;whiteSpace=wrap;html=1;" parent="1" vertex="1">
          <mxGeometry x="960" y="400" width="120" height="60" as="geometry" />
        </mxCell>
        <mxCell id="lBtSi5bBuaTfHxbqrmxi-2" value="Chain" style="text;html=1;align=center;verticalAlign=middle;whiteSpace=wrap;rounded=0;" vertex="1" parent="1">
          <mxGeometry x="990" y="415" width="60" height="30" as="geometry" />
        </mxCell>
        <mxCell id="lBtSi5bBuaTfHxbqrmxi-3" value="" style="rounded=0;whiteSpace=wrap;html=1;" vertex="1" parent="1">
          <mxGeometry x="760" y="400" width="120" height="60" as="geometry" />
        </mxCell>
        <mxCell id="lBtSi5bBuaTfHxbqrmxi-4" value="" style="endArrow=classic;html=1;rounded=0;exitX=0;exitY=0.5;exitDx=0;exitDy=0;entryX=1;entryY=0.5;entryDx=0;entryDy=0;" edge="1" parent="1" source="JS8GYsMPz_EXCHOyPgL2-21" target="lBtSi5bBuaTfHxbqrmxi-3">
          <mxGeometry width="50" height="50" relative="1" as="geometry">
            <mxPoint x="560" y="550" as="sourcePoint" />
            <mxPoint x="610" y="500" as="targetPoint" />
          </mxGeometry>
        </mxCell>
        <mxCell id="lBtSi5bBuaTfHxbqrmxi-5" value="Rear Sprocket" style="text;html=1;align=center;verticalAlign=middle;whiteSpace=wrap;rounded=0;" vertex="1" parent="1">
          <mxGeometry x="790" y="415" width="60" height="30" as="geometry" />
        </mxCell>
        <mxCell id="lBtSi5bBuaTfHxbqrmxi-6" value="" style="rounded=0;whiteSpace=wrap;html=1;" vertex="1" parent="1">
          <mxGeometry x="560" y="400" width="120" height="60" as="geometry" />
        </mxCell>
        <mxCell id="lBtSi5bBuaTfHxbqrmxi-7" value="Kinetic Energy" style="text;html=1;align=center;verticalAlign=middle;whiteSpace=wrap;rounded=0;" vertex="1" parent="1">
          <mxGeometry x="890" y="400" width="60" height="30" as="geometry" />
        </mxCell>
        <mxCell id="lBtSi5bBuaTfHxbqrmxi-8" value="" style="endArrow=classic;html=1;rounded=0;exitX=0;exitY=0.5;exitDx=0;exitDy=0;entryX=1;entryY=0.5;entryDx=0;entryDy=0;" edge="1" parent="1" source="lBtSi5bBuaTfHxbqrmxi-3" target="lBtSi5bBuaTfHxbqrmxi-6">
          <mxGeometry width="50" height="50" relative="1" as="geometry">
            <mxPoint x="560" y="550" as="sourcePoint" />
            <mxPoint x="610" y="500" as="targetPoint" />
          </mxGeometry>
        </mxCell>
        <mxCell id="lBtSi5bBuaTfHxbqrmxi-9" value="Rear Wheel" style="text;html=1;align=center;verticalAlign=middle;whiteSpace=wrap;rounded=0;" vertex="1" parent="1">
          <mxGeometry x="590" y="415" width="60" height="30" as="geometry" />
        </mxCell>
        <mxCell id="lBtSi5bBuaTfHxbqrmxi-10" value="" style="rounded=0;whiteSpace=wrap;html=1;" vertex="1" parent="1">
          <mxGeometry x="360" y="400" width="120" height="60" as="geometry" />
        </mxCell>
        <mxCell id="lBtSi5bBuaTfHxbqrmxi-11" value="" style="endArrow=classic;html=1;rounded=0;exitX=0;exitY=0.5;exitDx=0;exitDy=0;entryX=1;entryY=0.5;entryDx=0;entryDy=0;" edge="1" parent="1" source="lBtSi5bBuaTfHxbqrmxi-6" target="lBtSi5bBuaTfHxbqrmxi-10">
          <mxGeometry width="50" height="50" relative="1" as="geometry">
            <mxPoint x="560" y="550" as="sourcePoint" />
            <mxPoint x="610" y="500" as="targetPoint" />
          </mxGeometry>
        </mxCell>
        <mxCell id="lBtSi5bBuaTfHxbqrmxi-12" value="Kinetic Energy" style="text;html=1;align=center;verticalAlign=middle;whiteSpace=wrap;rounded=0;" vertex="1" parent="1">
          <mxGeometry x="690" y="400" width="60" height="30" as="geometry" />
        </mxCell>
        <mxCell id="lBtSi5bBuaTfHxbqrmxi-13" value="Kinetic Energy" style="text;html=1;align=center;verticalAlign=middle;whiteSpace=wrap;rounded=0;" vertex="1" parent="1">
          <mxGeometry x="490" y="400" width="60" height="30" as="geometry" />
        </mxCell>
        <mxCell id="lBtSi5bBuaTfHxbqrmxi-21" value="Kinetic Energy" style="text;html=1;align=center;verticalAlign=middle;whiteSpace=wrap;rounded=0;" vertex="1" parent="1">
          <mxGeometry x="620" y="330" width="60" height="30" as="geometry" />
        </mxCell>
        <mxCell id="lBtSi5bBuaTfHxbqrmxi-26" value="Frame" style="text;html=1;align=center;verticalAlign=middle;whiteSpace=wrap;rounded=0;" vertex="1" parent="1">
          <mxGeometry x="390" y="415" width="60" height="30" as="geometry" />
        </mxCell>
        <mxCell id="lBtSi5bBuaTfHxbqrmxi-27" value="" style="rounded=0;whiteSpace=wrap;html=1;" vertex="1" parent="1">
          <mxGeometry x="160" y="400" width="120" height="60" as="geometry" />
        </mxCell>
        <mxCell id="lBtSi5bBuaTfHxbqrmxi-28" value="Fork" style="text;html=1;align=center;verticalAlign=middle;whiteSpace=wrap;rounded=0;" vertex="1" parent="1">
          <mxGeometry x="190" y="415" width="60" height="30" as="geometry" />
        </mxCell>
        <mxCell id="lBtSi5bBuaTfHxbqrmxi-29" value="" style="endArrow=classic;html=1;rounded=0;exitX=0;exitY=0.5;exitDx=0;exitDy=0;entryX=1;entryY=0.5;entryDx=0;entryDy=0;" edge="1" parent="1" source="lBtSi5bBuaTfHxbqrmxi-10" target="lBtSi5bBuaTfHxbqrmxi-27">
          <mxGeometry width="50" height="50" relative="1" as="geometry">
            <mxPoint x="270" y="579" as="sourcePoint" />
            <mxPoint x="320" y="529" as="targetPoint" />
          </mxGeometry>
        </mxCell>
        <mxCell id="lBtSi5bBuaTfHxbqrmxi-37" value="Kinetic Energy" style="text;html=1;align=center;verticalAlign=middle;whiteSpace=wrap;rounded=0;" vertex="1" parent="1">
          <mxGeometry x="290" y="400" width="60" height="30" as="geometry" />
        </mxCell>
        <mxCell id="lBtSi5bBuaTfHxbqrmxi-39" value="" style="endArrow=classic;html=1;rounded=0;exitX=0.5;exitY=1;exitDx=0;exitDy=0;entryX=0.5;entryY=0;entryDx=0;entryDy=0;" edge="1" parent="1" source="lBtSi5bBuaTfHxbqrmxi-14" target="lBtSi5bBuaTfHxbqrmxi-6">
          <mxGeometry width="50" height="50" relative="1" as="geometry">
            <mxPoint x="750" y="350" as="sourcePoint" />
            <mxPoint x="780" y="290" as="targetPoint" />
          </mxGeometry>
        </mxCell>
        <mxCell id="lBtSi5bBuaTfHxbqrmxi-14" value="" style="rounded=0;whiteSpace=wrap;html=1;" vertex="1" parent="1">
          <mxGeometry x="560" y="262" width="120" height="60" as="geometry" />
        </mxCell>
        <mxCell id="lBtSi5bBuaTfHxbqrmxi-15" value="" style="rounded=0;whiteSpace=wrap;html=1;" vertex="1" parent="1">
          <mxGeometry x="360" y="261" width="120" height="60" as="geometry" />
        </mxCell>
        <mxCell id="lBtSi5bBuaTfHxbqrmxi-16" value="" style="rounded=0;whiteSpace=wrap;html=1;" vertex="1" parent="1">
          <mxGeometry x="160" y="260" width="120" height="60" as="geometry" />
        </mxCell>
        <mxCell id="lBtSi5bBuaTfHxbqrmxi-20" value="Rear Brake" style="text;html=1;align=center;verticalAlign=middle;whiteSpace=wrap;rounded=0;" vertex="1" parent="1">
          <mxGeometry x="590" y="276" width="60" height="30" as="geometry" />
        </mxCell>
        <mxCell id="lBtSi5bBuaTfHxbqrmxi-22" value="Kinetic Energy" style="text;html=1;align=center;verticalAlign=middle;whiteSpace=wrap;rounded=0;" vertex="1" parent="1">
          <mxGeometry x="490" y="260" width="60" height="30" as="geometry" />
        </mxCell>
        <mxCell id="lBtSi5bBuaTfHxbqrmxi-23" value="Kinetic Energy" style="text;html=1;align=center;verticalAlign=middle;whiteSpace=wrap;rounded=0;" vertex="1" parent="1">
          <mxGeometry x="290" y="260" width="60" height="30" as="geometry" />
        </mxCell>
        <mxCell id="lBtSi5bBuaTfHxbqrmxi-24" value="Brake Cable" style="text;html=1;align=center;verticalAlign=middle;whiteSpace=wrap;rounded=0;" vertex="1" parent="1">
          <mxGeometry x="390" y="275" width="60" height="30" as="geometry" />
        </mxCell>
        <mxCell id="lBtSi5bBuaTfHxbqrmxi-25" value="Brake Lever" style="text;html=1;align=center;verticalAlign=middle;whiteSpace=wrap;rounded=0;" vertex="1" parent="1">
          <mxGeometry x="190" y="276" width="60" height="30" as="geometry" />
        </mxCell>
        <mxCell id="lBtSi5bBuaTfHxbqrmxi-40" value="" style="endArrow=classic;html=1;rounded=0;exitX=1;exitY=0.5;exitDx=0;exitDy=0;entryX=0;entryY=0.5;entryDx=0;entryDy=0;" edge="1" parent="1" source="lBtSi5bBuaTfHxbqrmxi-15" target="lBtSi5bBuaTfHxbqrmxi-14">
          <mxGeometry width="50" height="50" relative="1" as="geometry">
            <mxPoint x="670" y="462" as="sourcePoint" />
            <mxPoint x="720" y="412" as="targetPoint" />
          </mxGeometry>
        </mxCell>
        <mxCell id="lBtSi5bBuaTfHxbqrmxi-41" value="" style="endArrow=classic;html=1;rounded=0;exitX=1;exitY=0.5;exitDx=0;exitDy=0;entryX=0;entryY=0.5;entryDx=0;entryDy=0;" edge="1" parent="1" source="lBtSi5bBuaTfHxbqrmxi-16" target="lBtSi5bBuaTfHxbqrmxi-15">
          <mxGeometry width="50" height="50" relative="1" as="geometry">
            <mxPoint x="670" y="462" as="sourcePoint" />
            <mxPoint x="720" y="412" as="targetPoint" />
          </mxGeometry>
        </mxCell>
        <mxCell id="lBtSi5bBuaTfHxbqrmxi-42" value="" style="endArrow=classic;html=1;rounded=0;exitX=0.5;exitY=1;exitDx=0;exitDy=0;entryX=0.5;entryY=0;entryDx=0;entryDy=0;" edge="1" parent="1" source="JS8GYsMPz_EXCHOyPgL2-17" target="JS8GYsMPz_EXCHOyPgL2-21">
          <mxGeometry width="50" height="50" relative="1" as="geometry">
            <mxPoint x="670" y="440" as="sourcePoint" />
            <mxPoint x="720" y="390" as="targetPoint" />
          </mxGeometry>
        </mxCell>
        <mxCell id="lBtSi5bBuaTfHxbqrmxi-43" value="" style="rounded=0;whiteSpace=wrap;html=1;" vertex="1" parent="1">
          <mxGeometry x="160" y="680" width="120" height="60" as="geometry" />
        </mxCell>
        <mxCell id="lBtSi5bBuaTfHxbqrmxi-44" value="Front Hub" style="text;html=1;align=center;verticalAlign=middle;whiteSpace=wrap;rounded=0;" vertex="1" parent="1">
          <mxGeometry x="190" y="695" width="60" height="30" as="geometry" />
        </mxCell>
        <mxCell id="lBtSi5bBuaTfHxbqrmxi-45" value="" style="endArrow=classic;html=1;rounded=0;exitX=0.5;exitY=1;exitDx=0;exitDy=0;entryX=0.5;entryY=0;entryDx=0;entryDy=0;" edge="1" parent="1" source="lBtSi5bBuaTfHxbqrmxi-27" target="lBtSi5bBuaTfHxbqrmxi-43">
          <mxGeometry width="50" height="50" relative="1" as="geometry">
            <mxPoint x="670" y="440" as="sourcePoint" />
            <mxPoint x="720" y="390" as="targetPoint" />
          </mxGeometry>
        </mxCell>
        <mxCell id="lBtSi5bBuaTfHxbqrmxi-46" value="" style="rounded=0;whiteSpace=wrap;html=1;" vertex="1" parent="1">
          <mxGeometry x="360" y="680" width="120" height="60" as="geometry" />
        </mxCell>
        <mxCell id="lBtSi5bBuaTfHxbqrmxi-47" value="Front Wheel" style="text;html=1;align=center;verticalAlign=middle;whiteSpace=wrap;rounded=0;" vertex="1" parent="1">
          <mxGeometry x="390" y="695" width="60" height="30" as="geometry" />
        </mxCell>
        <mxCell id="lBtSi5bBuaTfHxbqrmxi-48" value="" style="endArrow=classic;html=1;rounded=0;exitX=1;exitY=0.5;exitDx=0;exitDy=0;entryX=0;entryY=0.5;entryDx=0;entryDy=0;" edge="1" parent="1" source="lBtSi5bBuaTfHxbqrmxi-43" target="lBtSi5bBuaTfHxbqrmxi-46">
          <mxGeometry width="50" height="50" relative="1" as="geometry">
            <mxPoint x="670" y="580" as="sourcePoint" />
            <mxPoint x="720" y="530" as="targetPoint" />
          </mxGeometry>
        </mxCell>
        <mxCell id="lBtSi5bBuaTfHxbqrmxi-49" value="Kinetic Energy" style="text;html=1;align=center;verticalAlign=middle;whiteSpace=wrap;rounded=0;" vertex="1" parent="1">
          <mxGeometry x="1020" y="270" width="60" height="30" as="geometry" />
        </mxCell>
        <mxCell id="lBtSi5bBuaTfHxbqrmxi-50" value="Kinetic Energy" style="text;html=1;align=center;verticalAlign=middle;whiteSpace=wrap;rounded=0;" vertex="1" parent="1">
          <mxGeometry x="220" y="560" width="60" height="30" as="geometry" />
        </mxCell>
        <mxCell id="lBtSi5bBuaTfHxbqrmxi-51" value="Kinetic Energy" style="text;html=1;align=center;verticalAlign=middle;whiteSpace=wrap;rounded=0;" vertex="1" parent="1">
          <mxGeometry x="290" y="680" width="60" height="30" as="geometry" />
        </mxCell>
        <mxCell id="lBtSi5bBuaTfHxbqrmxi-52" value="" style="endArrow=classic;html=1;rounded=0;exitX=0.5;exitY=1;exitDx=0;exitDy=0;" edge="1" parent="1" source="lBtSi5bBuaTfHxbqrmxi-46">
          <mxGeometry width="50" height="50" relative="1" as="geometry">
            <mxPoint x="680" y="440" as="sourcePoint" />
            <mxPoint x="420" y="790" as="targetPoint" />
          </mxGeometry>
        </mxCell>
        <mxCell id="lBtSi5bBuaTfHxbqrmxi-53" value="&lt;font style=&quot;font-size: 14px;&quot;&gt;Output&lt;/font&gt;" style="text;html=1;align=center;verticalAlign=middle;whiteSpace=wrap;rounded=0;" vertex="1" parent="1">
          <mxGeometry x="390" y="790" width="60" height="30" as="geometry" />
        </mxCell>
        <mxCell id="lBtSi5bBuaTfHxbqrmxi-54" value="" style="rounded=0;whiteSpace=wrap;html=1;" vertex="1" parent="1">
          <mxGeometry x="360" y="540" width="120" height="60" as="geometry" />
        </mxCell>
        <mxCell id="lBtSi5bBuaTfHxbqrmxi-55" value="" style="rounded=0;whiteSpace=wrap;html=1;" vertex="1" parent="1">
          <mxGeometry x="560" y="540" width="120" height="60" as="geometry" />
        </mxCell>
        <mxCell id="lBtSi5bBuaTfHxbqrmxi-56" value="" style="rounded=0;whiteSpace=wrap;html=1;" vertex="1" parent="1">
          <mxGeometry x="760" y="540" width="120" height="60" as="geometry" />
        </mxCell>
        <mxCell id="lBtSi5bBuaTfHxbqrmxi-57" value="" style="endArrow=classic;html=1;rounded=0;exitX=0;exitY=0.5;exitDx=0;exitDy=0;entryX=1;entryY=0.5;entryDx=0;entryDy=0;" edge="1" parent="1" source="lBtSi5bBuaTfHxbqrmxi-56" target="lBtSi5bBuaTfHxbqrmxi-55">
          <mxGeometry width="50" height="50" relative="1" as="geometry">
            <mxPoint x="680" y="640" as="sourcePoint" />
            <mxPoint x="730" y="590" as="targetPoint" />
          </mxGeometry>
        </mxCell>
        <mxCell id="lBtSi5bBuaTfHxbqrmxi-58" value="" style="endArrow=classic;html=1;rounded=0;exitX=0;exitY=0.5;exitDx=0;exitDy=0;entryX=1;entryY=0.5;entryDx=0;entryDy=0;" edge="1" parent="1" source="lBtSi5bBuaTfHxbqrmxi-55" target="lBtSi5bBuaTfHxbqrmxi-54">
          <mxGeometry width="50" height="50" relative="1" as="geometry">
            <mxPoint x="680" y="640" as="sourcePoint" />
            <mxPoint x="730" y="590" as="targetPoint" />
          </mxGeometry>
        </mxCell>
        <mxCell id="lBtSi5bBuaTfHxbqrmxi-59" value="" style="endArrow=classic;html=1;rounded=0;exitX=0.5;exitY=1;exitDx=0;exitDy=0;entryX=0.5;entryY=0;entryDx=0;entryDy=0;" edge="1" parent="1" source="lBtSi5bBuaTfHxbqrmxi-54" target="lBtSi5bBuaTfHxbqrmxi-46">
          <mxGeometry width="50" height="50" relative="1" as="geometry">
            <mxPoint x="680" y="640" as="sourcePoint" />
            <mxPoint x="730" y="590" as="targetPoint" />
          </mxGeometry>
        </mxCell>
        <mxCell id="lBtSi5bBuaTfHxbqrmxi-60" value="Kinetic Energy" style="text;html=1;align=center;verticalAlign=middle;whiteSpace=wrap;rounded=0;" vertex="1" parent="1">
          <mxGeometry x="690" y="540" width="60" height="30" as="geometry" />
        </mxCell>
        <mxCell id="lBtSi5bBuaTfHxbqrmxi-61" value="Kinetic Energy" style="text;html=1;align=center;verticalAlign=middle;whiteSpace=wrap;rounded=0;" vertex="1" parent="1">
          <mxGeometry x="490" y="540" width="60" height="30" as="geometry" />
        </mxCell>
        <mxCell id="lBtSi5bBuaTfHxbqrmxi-62" value="Kinetic Energy" style="text;html=1;align=center;verticalAlign=middle;whiteSpace=wrap;rounded=0;" vertex="1" parent="1">
          <mxGeometry x="410" y="620" width="60" height="30" as="geometry" />
        </mxCell>
        <mxCell id="lBtSi5bBuaTfHxbqrmxi-63" value="Front Brake" style="text;html=1;align=center;verticalAlign=middle;whiteSpace=wrap;rounded=0;" vertex="1" parent="1">
          <mxGeometry x="390" y="555" width="60" height="30" as="geometry" />
        </mxCell>
        <mxCell id="lBtSi5bBuaTfHxbqrmxi-64" value="Brake Cable" style="text;html=1;align=center;verticalAlign=middle;whiteSpace=wrap;rounded=0;" vertex="1" parent="1">
          <mxGeometry x="590" y="555" width="60" height="30" as="geometry" />
        </mxCell>
        <mxCell id="lBtSi5bBuaTfHxbqrmxi-65" value="Brake Lever" style="text;html=1;align=center;verticalAlign=middle;whiteSpace=wrap;rounded=0;" vertex="1" parent="1">
          <mxGeometry x="790" y="555" width="60" height="30" as="geometry" />
        </mxCell>
        <mxCell id="lBtSi5bBuaTfHxbqrmxi-66" value="" style="rounded=0;whiteSpace=wrap;html=1;" vertex="1" parent="1">
          <mxGeometry x="560" y="680" width="120" height="60" as="geometry" />
        </mxCell>
        <mxCell id="lBtSi5bBuaTfHxbqrmxi-67" value="" style="rounded=0;whiteSpace=wrap;html=1;" vertex="1" parent="1">
          <mxGeometry x="760" y="680" width="120" height="60" as="geometry" />
        </mxCell>
        <mxCell id="lBtSi5bBuaTfHxbqrmxi-68" value="" style="rounded=0;whiteSpace=wrap;html=1;" vertex="1" parent="1">
          <mxGeometry x="960" y="680" width="120" height="60" as="geometry" />
        </mxCell>
        <mxCell id="lBtSi5bBuaTfHxbqrmxi-69" value="" style="endArrow=classic;html=1;rounded=0;exitX=1;exitY=0.5;exitDx=0;exitDy=0;entryX=0;entryY=0.5;entryDx=0;entryDy=0;" edge="1" parent="1" source="lBtSi5bBuaTfHxbqrmxi-46" target="lBtSi5bBuaTfHxbqrmxi-66">
          <mxGeometry width="50" height="50" relative="1" as="geometry">
            <mxPoint x="680" y="640" as="sourcePoint" />
            <mxPoint x="730" y="590" as="targetPoint" />
          </mxGeometry>
        </mxCell>
        <mxCell id="lBtSi5bBuaTfHxbqrmxi-70" value="" style="endArrow=classic;html=1;rounded=0;exitX=1;exitY=0.5;exitDx=0;exitDy=0;entryX=0;entryY=0.5;entryDx=0;entryDy=0;" edge="1" parent="1" source="lBtSi5bBuaTfHxbqrmxi-66" target="lBtSi5bBuaTfHxbqrmxi-67">
          <mxGeometry width="50" height="50" relative="1" as="geometry">
            <mxPoint x="680" y="640" as="sourcePoint" />
            <mxPoint x="730" y="590" as="targetPoint" />
          </mxGeometry>
        </mxCell>
        <mxCell id="lBtSi5bBuaTfHxbqrmxi-71" value="" style="endArrow=classic;html=1;rounded=0;exitX=1;exitY=0.5;exitDx=0;exitDy=0;entryX=0;entryY=0.5;entryDx=0;entryDy=0;" edge="1" parent="1" source="lBtSi5bBuaTfHxbqrmxi-67" target="lBtSi5bBuaTfHxbqrmxi-68">
          <mxGeometry width="50" height="50" relative="1" as="geometry">
            <mxPoint x="680" y="640" as="sourcePoint" />
            <mxPoint x="730" y="590" as="targetPoint" />
          </mxGeometry>
        </mxCell>
        <mxCell id="lBtSi5bBuaTfHxbqrmxi-72" value="Speedo Gear" style="text;html=1;align=center;verticalAlign=middle;whiteSpace=wrap;rounded=0;" vertex="1" parent="1">
          <mxGeometry x="590" y="695" width="60" height="30" as="geometry" />
        </mxCell>
        <mxCell id="lBtSi5bBuaTfHxbqrmxi-73" value="Kinetic Energy" style="text;html=1;align=center;verticalAlign=middle;whiteSpace=wrap;rounded=0;" vertex="1" parent="1">
          <mxGeometry x="490" y="680" width="60" height="30" as="geometry" />
        </mxCell>
        <mxCell id="lBtSi5bBuaTfHxbqrmxi-74" value="Speedo Cable" style="text;html=1;align=center;verticalAlign=middle;whiteSpace=wrap;rounded=0;" vertex="1" parent="1">
          <mxGeometry x="790" y="695" width="60" height="30" as="geometry" />
        </mxCell>
        <mxCell id="lBtSi5bBuaTfHxbqrmxi-75" value="Speedo" style="text;html=1;align=center;verticalAlign=middle;whiteSpace=wrap;rounded=0;" vertex="1" parent="1">
          <mxGeometry x="990" y="695" width="60" height="30" as="geometry" />
        </mxCell>
        <mxCell id="lBtSi5bBuaTfHxbqrmxi-76" value="Mechanical Signal" style="text;html=1;align=center;verticalAlign=middle;whiteSpace=wrap;rounded=0;" vertex="1" parent="1">
          <mxGeometry x="690" y="680" width="60" height="30" as="geometry" />
        </mxCell>
        <mxCell id="lBtSi5bBuaTfHxbqrmxi-77" value="Mechanical Signal" style="text;html=1;align=center;verticalAlign=middle;whiteSpace=wrap;rounded=0;" vertex="1" parent="1">
          <mxGeometry x="890" y="680" width="60" height="30" as="geometry" />
        </mxCell>
      </root>
    </mxGraphModel>
  </diagram>
</mxfile>
